# xmcd
#
# Track frame offsets: 
#        150
#        17073
#        30285
#        43098
#        54707
#        84060
#        107424
#        121395
#        138111
#        151709
#        166679
#        193074
#
# Disc length: 2886 seconds
#
# Revision: 0
# Processed by: cddbd v1.5.2PL0 Copyright (c) Steve Scherf et al.
# Submitted via: ExactAudioCopy v1.0b3
#
DISCID=820b440c
DTITLE=Stephanie Hatfield - The Track
DYEAR=2011
DGENRE=country
TTITLE0=Leave somehow
TTITLE1=Wrong side of dawn
TTITLE2=Be enough
TTITLE3=Fall Into me
TTITLE4=Shadow
TTITLE5=Still Can't breathe
TTITLE6=Sinful Paradise
TTITLE7=She loved you hard
TTITLE8=compare
TTITLE9=Lonely one
TTITLE10=Never Untangled
TTITLE11=Walls are not mine
EXTD=
EXTT0=
EXTT1=
EXTT2=
EXTT3=
EXTT4=
EXTT5=
EXTT6=
EXTT7=
EXTT8=
EXTT9=
EXTT10=
EXTT11=
PLAYORDER=
